<svg width="167" height="73" viewBox="0 0 167 73" fill="none" xmlns="http://www.w3.org/2000/svg">
<g filter="url(#filter0_ddi_187_31)">
<path d="M13.92 45.776C13.664 45.616 13.504 45.248 13.44 44.672C13.376 44.096 13.344 43.392 13.344 42.56V41.408H12.912C12.88 41.6 12.8 42.048 12.672 42.752C12.576 43.456 12.432 44.192 12.24 44.96C12.08 45.76 11.872 46.464 11.616 47.072C11.392 47.68 11.136 47.984 10.848 47.984C10.592 47.984 10.384 47.648 10.224 46.976C10.064 46.304 9.952 45.52 9.888 44.624C9.824 43.76 9.776 42.896 9.744 42.032C9.744 41.136 9.744 40.48 9.744 40.064C9.744 37.856 9.776 35.68 9.84 33.536C9.904 31.36 9.936 29.184 9.936 27.008C9.936 24.832 9.76 22.672 9.408 20.528C9.056 18.352 8.88 16.208 8.88 14.096C9.328 13.52 9.744 12.928 10.128 12.32C10.544 11.712 10.944 11.088 11.328 10.448C12.48 10.16 13.68 9.888 14.928 9.632C16.176 9.376 17.408 9.248 18.624 9.248C21.984 9.248 24.848 9.776 27.216 10.832C29.616 11.856 31.568 13.328 33.072 15.248C34.576 17.136 35.68 19.408 36.384 22.064C37.088 24.688 37.44 27.584 37.44 30.752C37.44 35.872 36.032 39.68 33.216 42.176C30.4 44.64 26.464 45.872 21.408 45.872C21.216 45.872 20.912 45.84 20.496 45.776C20.08 45.744 19.792 45.632 19.632 45.44C20.528 45.312 21.552 45.152 22.704 44.96C23.888 44.8 25.072 44.592 26.256 44.336C27.44 44.08 28.56 43.76 29.616 43.376C30.704 42.96 31.6 42.448 32.304 41.84C31.344 42.48 30.352 42.992 29.328 43.376C28.336 43.728 27.312 44 26.256 44.192C25.232 44.384 24.176 44.528 23.088 44.624C22 44.72 20.912 44.832 19.824 44.96L19.968 44.432L19.824 44.048C19.216 44.144 18.656 44.24 18.144 44.336C17.664 44.432 17.152 44.48 16.608 44.48C16.064 44.48 15.536 44.416 15.024 44.288L14.976 45.68L13.92 45.776ZM17.328 41.696C19.536 41.696 21.584 41.632 23.472 41.504C25.392 41.376 27.056 40.96 28.464 40.256C29.872 39.552 30.976 38.48 31.776 37.04C32.608 35.568 33.024 33.504 33.024 30.848C33.024 29.536 32.928 28.16 32.736 26.72C32.576 25.248 32.256 23.824 31.776 22.448C31.328 21.04 30.704 19.76 29.904 18.608C29.168 17.52 28.24 16.624 27.12 15.92C28.208 16.656 29.104 17.568 29.808 18.656C30.608 19.84 31.216 21.12 31.632 22.496C32.08 23.872 32.384 25.296 32.544 26.768C32.736 28.208 32.832 29.584 32.832 30.896C32.832 32.656 32.672 34.128 32.352 35.312C32.032 36.464 31.584 37.408 31.008 38.144C30.432 38.848 29.712 39.392 28.848 39.776C28.016 40.16 27.072 40.448 26.016 40.64C24.992 40.8 23.856 40.928 22.608 41.024C21.36 41.088 20.032 41.168 18.624 41.264C19.744 40.784 20.944 40.464 22.224 40.304C23.536 40.144 24.784 39.936 25.968 39.68C27.184 39.424 28.272 38.992 29.232 38.384C30.192 37.744 30.912 36.704 31.392 35.264L31.968 35.072C32.096 34.432 32.176 33.872 32.208 33.392C32.24 32.88 32.256 32.304 32.256 31.664C32.256 29.68 32.096 27.696 31.776 25.712C31.456 23.696 30.864 21.888 30 20.288C29.136 18.656 27.936 17.344 26.4 16.352C24.864 15.328 22.896 14.816 20.496 14.816C19.6 14.816 18.704 14.88 17.808 15.008C16.944 15.104 16.08 15.248 15.216 15.44C15.28 15.472 15.312 15.52 15.312 15.584C15.312 15.68 15.296 15.728 15.264 15.728C16.96 15.376 18.592 15.2 20.16 15.2C22.112 15.2 23.808 15.552 25.248 16.256C26.688 16.928 27.872 17.872 28.8 19.088C29.76 20.272 30.464 21.664 30.912 23.264C31.392 24.864 31.648 26.576 31.68 28.4C31.424 26.544 31.072 24.832 30.624 23.264C30.176 21.664 29.52 20.288 28.656 19.136C27.792 17.984 26.672 17.088 25.296 16.448C23.92 15.776 22.176 15.44 20.064 15.44C19.264 15.44 18.464 15.456 17.664 15.488C16.864 15.52 16.08 15.664 15.312 15.92C15.472 17.904 15.616 19.872 15.744 21.824C15.872 23.776 15.936 25.744 15.936 27.728C15.936 30.352 15.824 32.944 15.6 35.504C15.408 38.032 15.232 40.592 15.072 43.184C15.392 42.864 15.76 42.608 16.176 42.416C16.592 42.192 16.976 41.952 17.328 41.696ZM36.48 30.992C36.48 29.424 36.368 27.84 36.144 26.24C35.952 24.64 35.632 23.088 35.184 21.584C35.632 23.216 35.936 24.848 36.096 26.48C36.288 28.112 36.384 29.76 36.384 31.424C36.384 32.256 36.336 33.104 36.24 33.968C36.208 34.064 36.192 34.16 36.192 34.256C36.384 33.2 36.48 32.112 36.48 30.992ZM31.824 31.184C31.824 31.664 31.792 32.128 31.728 32.576C31.76 32.384 31.776 32.192 31.776 32V30.416C31.776 30.448 31.776 30.48 31.776 30.512C31.808 30.704 31.824 30.928 31.824 31.184ZM31.776 30.416C31.776 30.224 31.76 30.048 31.728 29.888C31.76 30.08 31.776 30.256 31.776 30.416ZM35.712 36.464C35.776 36.272 35.824 36.08 35.856 35.888C35.824 36.08 35.776 36.272 35.712 36.464ZM49.071 15.104C49.103 15.264 49.279 15.344 49.599 15.344H49.695C49.887 15.344 50.015 15.36 50.079 15.392C51.743 15.904 53.391 16.656 55.023 17.648C56.687 18.608 58.175 19.776 59.487 21.152C60.831 22.496 61.903 24.032 62.703 25.76C63.535 27.488 63.951 29.344 63.951 31.328C63.951 33.056 63.615 34.72 62.943 36.32C62.271 37.92 61.343 39.312 60.159 40.496C61.375 39.44 62.335 38.128 63.039 36.56C63.775 34.96 64.143 33.248 64.143 31.424C64.143 29.376 63.711 27.472 62.847 25.712C61.983 23.92 60.879 22.32 59.535 20.912C58.191 19.504 56.687 18.304 55.023 17.312C53.391 16.288 51.791 15.504 50.223 14.96C51.439 14.96 52.671 15.232 53.919 15.776C55.199 16.32 56.415 17.04 57.567 17.936C58.719 18.8 59.775 19.808 60.735 20.96C61.727 22.08 62.559 23.232 63.231 24.416L62.895 24.896C63.535 25.856 64.015 26.896 64.335 28.016C64.687 29.136 64.863 30.288 64.863 31.472C64.863 33.744 64.367 35.744 63.375 37.472C62.415 39.168 61.183 40.592 59.679 41.744C58.207 42.864 56.575 43.712 54.783 44.288C53.023 44.864 51.359 45.152 49.791 45.152C48.895 45.152 47.983 45.056 47.055 44.864C46.159 44.672 45.247 44.352 44.319 43.904V44.192C45.215 44.704 46.127 45.056 47.055 45.248C48.015 45.44 48.959 45.536 49.887 45.536C52.191 45.536 54.447 45.024 56.655 44C58.895 43.008 60.783 41.6 62.319 39.776C60.847 41.664 59.007 43.136 56.799 44.192C54.623 45.248 52.351 45.776 49.983 45.776C47.551 45.776 45.583 45.296 44.079 44.336C42.575 43.408 41.391 42.256 40.527 40.88C39.695 39.504 39.135 38.048 38.847 36.512C38.559 34.976 38.415 33.6 38.415 32.384C38.415 30.752 38.623 29.152 39.039 27.584C39.487 26.016 40.159 24.576 41.055 23.264C41.951 21.952 43.103 20.832 44.511 19.904C45.919 18.944 47.615 18.272 49.599 17.888L48.207 17.552C47.535 17.392 47.055 17.2 46.767 16.976C46.479 16.752 46.335 16.56 46.335 16.4C46.335 16.144 46.607 15.872 47.151 15.584C47.727 15.264 48.367 15.104 49.071 15.104ZM46.911 21.152C47.775 20.832 48.607 20.672 49.407 20.672C50.207 20.672 50.815 20.8 51.231 21.056C51.679 21.28 51.903 21.52 51.903 21.776C51.903 21.936 51.711 22.112 51.327 22.304C50.975 22.496 50.511 22.768 49.935 23.12C49.391 23.44 48.783 23.856 48.111 24.368C47.471 24.88 46.863 25.536 46.287 26.336C45.743 27.104 45.279 28.048 44.895 29.168C44.543 30.288 44.367 31.6 44.367 33.104C44.367 35.312 44.863 36.976 45.855 38.096C46.847 39.216 48.223 39.776 49.983 39.776C51.103 39.776 52.239 39.584 53.391 39.2C54.575 38.816 55.631 38.272 56.559 37.568C57.519 36.864 58.287 36 58.863 34.976C59.471 33.952 59.775 32.8 59.775 31.52C59.775 30.56 59.599 29.6 59.247 28.64C58.927 27.68 58.463 26.768 57.855 25.904C57.279 25.008 56.575 24.176 55.743 23.408C54.943 22.64 54.063 21.984 53.103 21.44C52.175 20.928 51.407 20.544 50.799 20.288C50.223 20 49.807 19.728 49.551 19.472C49.295 19.6 48.927 19.76 48.447 19.952C47.999 20.112 47.391 20.368 46.623 20.72L46.911 21.152ZM50.127 18.896C51.599 19.376 53.007 20.096 54.351 21.056C55.503 21.92 56.559 22.864 57.519 23.888C56.591 22.8 55.583 21.824 54.495 20.96C53.247 19.936 51.855 19.136 50.319 18.56L50.127 18.896ZM59.439 35.264C58.959 36.288 58.287 37.2 57.423 38C57.999 37.616 58.479 37.152 58.863 36.608C59.279 36.064 59.615 35.52 59.871 34.976C60.127 34.432 60.319 33.936 60.447 33.488C60.543 33.072 60.623 32.736 60.687 32.48C60.335 33.312 59.919 34.24 59.439 35.264ZM62.655 39.392C62.623 39.456 62.575 39.52 62.511 39.584C62.479 39.616 62.447 39.632 62.415 39.632C62.383 39.632 62.463 39.472 62.655 39.152C62.847 38.8 63.071 38.4 63.327 37.952C63.615 37.472 63.887 36.976 64.143 36.464C64.367 36.08 64.527 35.744 64.623 35.456C64.175 36.832 63.519 38.144 62.655 39.392ZM65.343 31.616C65.343 32.128 65.311 32.64 65.247 33.152C65.183 33.632 65.071 34.08 64.911 34.496C65.135 33.696 65.247 32.8 65.247 31.808C65.247 31.072 65.183 30.352 65.055 29.648C64.959 29.04 64.831 28.448 64.671 27.872C64.831 28.448 64.975 29.024 65.103 29.6C65.263 30.24 65.343 30.912 65.343 31.616ZM50.127 18.128L49.695 17.936C49.663 18 49.615 18.064 49.551 18.128C49.487 18.192 49.455 18.256 49.455 18.32C49.455 18.384 49.487 18.48 49.551 18.608C49.647 18.704 49.727 18.784 49.791 18.848L50.127 18.128ZM57.807 24.224C57.711 24.096 57.615 23.984 57.519 23.888C57.615 24.016 57.711 24.128 57.807 24.224ZM64.623 35.456C64.655 35.392 64.671 35.328 64.671 35.264C64.671 35.328 64.655 35.392 64.623 35.456ZM64.719 35.168C64.687 35.2 64.671 35.232 64.671 35.264C64.671 35.232 64.687 35.2 64.719 35.168ZM76.941 15.104C76.973 15.264 77.149 15.344 77.469 15.344H77.565C77.757 15.344 77.885 15.36 77.949 15.392C79.613 15.904 81.261 16.656 82.893 17.648C84.557 18.608 86.045 19.776 87.357 21.152C88.701 22.496 89.773 24.032 90.573 25.76C91.405 27.488 91.821 29.344 91.821 31.328C91.821 33.056 91.485 34.72 90.813 36.32C90.141 37.92 89.213 39.312 88.029 40.496C89.245 39.44 90.205 38.128 90.909 36.56C91.645 34.96 92.013 33.248 92.013 31.424C92.013 29.376 91.581 27.472 90.717 25.712C89.853 23.92 88.749 22.32 87.405 20.912C86.061 19.504 84.557 18.304 82.893 17.312C81.261 16.288 79.661 15.504 78.093 14.96C79.309 14.96 80.541 15.232 81.789 15.776C83.069 16.32 84.285 17.04 85.437 17.936C86.589 18.8 87.645 19.808 88.605 20.96C89.597 22.08 90.429 23.232 91.101 24.416L90.765 24.896C91.405 25.856 91.885 26.896 92.205 28.016C92.557 29.136 92.733 30.288 92.733 31.472C92.733 33.744 92.237 35.744 91.245 37.472C90.285 39.168 89.053 40.592 87.549 41.744C86.077 42.864 84.445 43.712 82.653 44.288C80.893 44.864 79.229 45.152 77.661 45.152C76.765 45.152 75.853 45.056 74.925 44.864C74.029 44.672 73.117 44.352 72.189 43.904V44.192C73.085 44.704 73.997 45.056 74.925 45.248C75.885 45.44 76.829 45.536 77.757 45.536C80.061 45.536 82.317 45.024 84.525 44C86.765 43.008 88.653 41.6 90.189 39.776C88.717 41.664 86.877 43.136 84.669 44.192C82.493 45.248 80.221 45.776 77.853 45.776C75.421 45.776 73.453 45.296 71.949 44.336C70.445 43.408 69.261 42.256 68.397 40.88C67.565 39.504 67.005 38.048 66.717 36.512C66.429 34.976 66.285 33.6 66.285 32.384C66.285 30.752 66.493 29.152 66.909 27.584C67.357 26.016 68.029 24.576 68.925 23.264C69.821 21.952 70.973 20.832 72.381 19.904C73.789 18.944 75.485 18.272 77.469 17.888L76.077 17.552C75.405 17.392 74.925 17.2 74.637 16.976C74.349 16.752 74.205 16.56 74.205 16.4C74.205 16.144 74.477 15.872 75.021 15.584C75.597 15.264 76.237 15.104 76.941 15.104ZM74.781 21.152C75.645 20.832 76.477 20.672 77.277 20.672C78.077 20.672 78.685 20.8 79.101 21.056C79.549 21.28 79.773 21.52 79.773 21.776C79.773 21.936 79.581 22.112 79.197 22.304C78.845 22.496 78.381 22.768 77.805 23.12C77.261 23.44 76.653 23.856 75.981 24.368C75.341 24.88 74.733 25.536 74.157 26.336C73.613 27.104 73.149 28.048 72.765 29.168C72.413 30.288 72.237 31.6 72.237 33.104C72.237 35.312 72.733 36.976 73.725 38.096C74.717 39.216 76.093 39.776 77.853 39.776C78.973 39.776 80.109 39.584 81.261 39.2C82.445 38.816 83.501 38.272 84.429 37.568C85.389 36.864 86.157 36 86.733 34.976C87.341 33.952 87.645 32.8 87.645 31.52C87.645 30.56 87.469 29.6 87.117 28.64C86.797 27.68 86.333 26.768 85.725 25.904C85.149 25.008 84.445 24.176 83.613 23.408C82.813 22.64 81.933 21.984 80.973 21.44C80.045 20.928 79.277 20.544 78.669 20.288C78.093 20 77.677 19.728 77.421 19.472C77.165 19.6 76.797 19.76 76.317 19.952C75.869 20.112 75.261 20.368 74.493 20.72L74.781 21.152ZM77.997 18.896C79.469 19.376 80.877 20.096 82.221 21.056C83.373 21.92 84.429 22.864 85.389 23.888C84.461 22.8 83.453 21.824 82.365 20.96C81.117 19.936 79.725 19.136 78.189 18.56L77.997 18.896ZM87.309 35.264C86.829 36.288 86.157 37.2 85.293 38C85.869 37.616 86.349 37.152 86.733 36.608C87.149 36.064 87.485 35.52 87.741 34.976C87.997 34.432 88.189 33.936 88.317 33.488C88.413 33.072 88.493 32.736 88.557 32.48C88.205 33.312 87.789 34.24 87.309 35.264ZM90.525 39.392C90.493 39.456 90.445 39.52 90.381 39.584C90.349 39.616 90.317 39.632 90.285 39.632C90.253 39.632 90.333 39.472 90.525 39.152C90.717 38.8 90.941 38.4 91.197 37.952C91.485 37.472 91.757 36.976 92.013 36.464C92.237 36.08 92.397 35.744 92.493 35.456C92.045 36.832 91.389 38.144 90.525 39.392ZM93.213 31.616C93.213 32.128 93.181 32.64 93.117 33.152C93.053 33.632 92.941 34.08 92.781 34.496C93.005 33.696 93.117 32.8 93.117 31.808C93.117 31.072 93.053 30.352 92.925 29.648C92.829 29.04 92.701 28.448 92.541 27.872C92.701 28.448 92.845 29.024 92.973 29.6C93.133 30.24 93.213 30.912 93.213 31.616ZM77.997 18.128L77.565 17.936C77.533 18 77.485 18.064 77.421 18.128C77.357 18.192 77.325 18.256 77.325 18.32C77.325 18.384 77.357 18.48 77.421 18.608C77.517 18.704 77.597 18.784 77.661 18.848L77.997 18.128ZM85.677 24.224C85.581 24.096 85.485 23.984 85.389 23.888C85.485 24.016 85.581 24.128 85.677 24.224ZM92.493 35.456C92.525 35.392 92.541 35.328 92.541 35.264C92.541 35.328 92.525 35.392 92.493 35.456ZM92.589 35.168C92.557 35.2 92.541 35.232 92.541 35.264C92.541 35.232 92.557 35.2 92.589 35.168ZM113.547 27.104V27.008L112.299 26.624L113.115 25.232L118.731 26.96C118.731 28.016 118.779 29.104 118.875 30.224C119.003 31.312 119.131 32.432 119.259 33.584C119.419 34.736 119.547 35.92 119.643 37.136C119.771 38.32 119.835 39.52 119.835 40.736C119.835 42.368 119.691 44.016 119.403 45.68C119.115 47.344 118.635 48.928 117.963 50.432C117.323 51.936 116.459 53.328 115.371 54.608C114.315 55.888 112.987 56.944 111.387 57.776C110.523 58.352 109.403 58.88 108.027 59.36C106.683 59.872 105.355 60.16 104.043 60.224H103.467C102.187 60.224 101.115 60.08 100.251 59.792C99.387 59.536 98.699 59.232 98.187 58.88C97.675 58.56 97.307 58.24 97.083 57.92C96.891 57.632 96.795 57.456 96.795 57.392C96.795 57.264 96.859 57.2 96.987 57.2C97.979 57.936 99.051 58.464 100.203 58.784C101.355 59.104 102.507 59.264 103.659 59.264C105.611 59.264 107.419 58.88 109.083 58.112C110.683 57.344 112.123 56.384 113.403 55.232C112.123 56.352 110.667 57.28 109.035 58.016C107.371 58.752 105.595 59.12 103.707 59.12C102.587 59.12 101.483 58.96 100.395 58.64C99.339 58.32 98.347 57.792 97.419 57.056C97.515 57.056 97.627 57.024 97.755 56.96C97.883 56.928 97.947 56.848 97.947 56.72L97.563 56.384C97.339 56.16 97.067 55.872 96.747 55.52C96.459 55.168 96.187 54.752 95.931 54.272C95.707 53.792 95.595 53.28 95.595 52.736C95.595 52.192 95.803 51.92 96.219 51.92C96.539 51.92 96.907 52.128 97.323 52.544C97.739 52.96 98.235 53.408 98.811 53.888C99.387 54.4 100.075 54.864 100.875 55.28C101.707 55.696 102.683 55.904 103.803 55.904C105.403 55.904 106.843 55.584 108.123 54.944C109.403 54.336 110.523 53.488 111.483 52.4C110.555 53.424 109.467 54.224 108.219 54.8C107.003 55.376 105.611 55.664 104.043 55.664C103.083 55.664 102.171 55.504 101.307 55.184C100.475 54.864 99.803 54.432 99.291 53.888C99.835 54.048 100.507 54.224 101.307 54.416C102.139 54.608 103.035 54.704 103.995 54.704C105.723 54.704 107.243 54.256 108.555 53.36C109.899 52.496 111.051 51.392 112.011 50.048L112.683 50.144C113.419 48.864 113.931 47.488 114.219 46.016C114.539 44.576 114.699 43.056 114.699 41.456C114.699 40.368 114.651 39.264 114.555 38.144C114.459 37.024 114.331 35.888 114.171 34.736L113.931 35.072C114.091 36.192 114.203 37.296 114.267 38.384C114.363 39.44 114.411 40.48 114.411 41.504C114.411 42.784 114.283 44.048 114.027 45.296C113.771 46.576 113.371 47.744 112.827 48.8C113.371 47.68 113.755 46.48 113.979 45.2C114.203 43.952 114.315 42.608 114.315 41.168C114.155 40.336 114.075 39.504 114.075 38.672C114.075 37.84 114.043 37.008 113.979 36.176L113.883 35.216C113.659 35.536 113.323 35.984 112.875 36.56C112.427 37.136 111.899 37.712 111.291 38.288C110.683 38.832 109.995 39.312 109.227 39.728C108.491 40.144 107.707 40.352 106.875 40.352L105.675 40.496C103.979 40.496 102.459 40.064 101.115 39.2C99.771 38.336 98.619 37.248 97.659 35.936C96.699 34.592 95.963 33.136 95.451 31.568C94.939 29.968 94.683 28.432 94.683 26.96C94.651 26.8 94.635 26.672 94.635 26.576V26.144C94.635 24.192 94.987 22.512 95.691 21.104C96.395 19.664 97.355 18.496 98.571 17.6C99.819 16.704 101.275 16.048 102.939 15.632C104.603 15.184 106.395 14.96 108.315 14.96C110.555 14.96 112.827 15.264 115.131 15.872C114.939 15.936 114.843 16.048 114.843 16.208C114.843 16.336 114.859 16.464 114.891 16.592C114.955 16.688 114.987 16.8 114.987 16.928V17.024C114.891 17.184 114.667 17.264 114.315 17.264C113.963 17.264 113.451 17.216 112.779 17.12C112.107 17.024 111.163 16.896 109.947 16.736V17.312C111.035 17.44 111.963 17.648 112.731 17.936C113.499 18.192 114.123 18.48 114.603 18.8C115.083 19.12 115.419 19.424 115.611 19.712C115.835 20 115.947 20.24 115.947 20.432C115.947 20.56 115.867 20.656 115.707 20.72C115.579 20.752 115.435 20.768 115.275 20.768C114.923 20.768 114.283 20.704 113.355 20.576C112.459 20.448 111.323 20.384 109.947 20.384C108.635 20.384 107.403 20.464 106.251 20.624C105.099 20.784 104.091 21.088 103.227 21.536C102.395 21.984 101.739 22.608 101.259 23.408C100.779 24.208 100.539 25.248 100.539 26.528C100.539 27.584 100.699 28.592 101.019 29.552C101.371 30.512 101.787 31.36 102.267 32.096C102.779 32.832 103.339 33.424 103.947 33.872C104.555 34.288 105.147 34.496 105.723 34.496C106.107 34.496 106.571 34.224 107.115 33.68C107.691 33.136 108.283 32.464 108.891 31.664C109.531 30.864 110.139 30.016 110.715 29.12C111.291 28.224 111.787 27.424 112.203 26.72L113.547 27.104ZM111.819 36.752C111.499 37.072 111.147 37.424 110.763 37.808C110.379 38.16 109.947 38.496 109.467 38.816C109.019 39.104 108.507 39.376 107.931 39.632C107.355 39.856 106.731 40 106.059 40.064L106.395 40.208C107.355 40.08 108.235 39.808 109.035 39.392C109.835 38.944 110.539 38.432 111.147 37.856C111.787 37.28 112.347 36.688 112.827 36.08C113.307 35.472 113.723 34.944 114.075 34.496L113.979 33.92C113.691 34.336 113.339 34.8 112.923 35.312C112.539 35.824 112.171 36.304 111.819 36.752ZM115.323 41.408C115.323 42.816 115.179 44.192 114.891 45.536C114.603 46.816 114.203 48.016 113.691 49.136C114.235 47.984 114.667 46.72 114.987 45.344C115.339 43.936 115.515 42.496 115.515 41.024C115.515 40.288 115.483 39.536 115.419 38.768C115.387 38 115.339 37.232 115.275 36.464L115.035 33.632L114.795 33.92C114.923 35.168 115.035 36.416 115.131 37.664C115.259 38.912 115.323 40.16 115.323 41.408ZM118.875 41.12C118.875 39.424 118.795 37.776 118.635 36.176C118.507 34.576 118.347 32.992 118.155 31.424C118.283 32.896 118.427 34.368 118.587 35.84C118.747 37.28 118.827 38.768 118.827 40.304C118.827 41.36 118.763 42.48 118.635 43.664C118.539 44.816 118.347 45.968 118.059 47.12C117.771 48.272 117.371 49.392 116.859 50.48C116.379 51.504 115.771 52.464 115.035 53.36C116.315 51.888 117.227 50.224 117.771 48.368C118.347 46.448 118.715 44.544 118.875 42.656V41.12ZM134.475 39.92C134.283 39.92 134.091 40.016 133.899 40.208C133.227 40.464 132.523 40.688 131.787 40.88C131.083 41.04 130.347 41.12 129.579 41.12C127.403 41.12 125.771 40.496 124.683 39.248C123.595 37.968 123.051 36.128 123.051 33.728C123.051 32.576 123.099 31.424 123.195 30.272C123.291 29.152 123.355 28.112 123.387 27.152C123.291 28.144 123.179 29.136 123.051 30.128C122.891 31.184 122.811 32.288 122.811 33.44C122.811 34.016 122.859 34.752 122.955 35.648C123.083 36.544 123.371 37.424 123.819 38.288C124.267 39.12 124.955 39.856 125.883 40.496C126.811 41.104 128.091 41.408 129.723 41.408C130.491 41.408 131.227 41.328 131.931 41.168C132.667 40.976 133.371 40.752 134.043 40.496C133.595 41.04 132.987 41.472 132.219 41.792C131.483 42.112 130.603 42.272 129.579 42.272C128.267 42.272 126.987 42 125.739 41.456C124.523 40.912 123.595 40 122.955 38.72L123.243 38.192C122.667 37.168 122.347 36.256 122.283 35.456C122.219 34.624 122.155 33.808 122.091 33.008L122.907 24.608C123.067 23.168 123.179 21.728 123.243 20.288L123.099 20.192C122.843 21.696 122.635 23.136 122.475 24.512C122.315 25.856 122.187 27.184 122.091 28.496V27.248C122.283 25.776 122.459 24.336 122.619 22.928C122.779 21.488 122.987 20.032 123.243 18.56C123.499 17.088 123.819 15.552 124.203 13.952C124.619 12.352 125.163 10.64 125.835 8.816C126.731 7.6 127.259 6.4 127.419 5.216C127.515 5.216 127.611 5.232 127.707 5.264C127.803 5.296 127.995 5.312 128.283 5.312C128.475 5.312 128.635 5.36 128.763 5.456C128.923 5.52 129.003 5.68 129.003 5.936C129.003 6.224 128.907 6.656 128.715 7.232C128.779 7.232 128.875 7.264 129.003 7.328C129.131 7.36 129.227 7.376 129.291 7.376C129.739 6.608 130.139 5.952 130.491 5.408C130.875 4.864 131.243 4.592 131.595 4.592C131.819 4.592 132.011 4.736 132.171 5.024C132.363 5.28 132.459 5.712 132.459 6.32C132.395 7.472 132.203 8.56 131.883 9.584C131.595 10.608 131.275 11.6 130.923 12.56C130.571 13.52 130.219 14.496 129.867 15.488C129.547 16.48 129.307 17.52 129.147 18.608C128.955 19.856 128.763 21.136 128.571 22.448C128.379 23.728 128.203 25.008 128.043 26.288C127.883 27.568 127.723 28.8 127.563 29.984C127.435 31.168 127.339 32.272 127.275 33.296C127.275 34.224 127.419 35.184 127.707 36.176C127.867 36.432 128.011 36.624 128.139 36.752C128.267 36.848 128.491 36.896 128.811 36.896C129.195 36.896 129.611 36.848 130.059 36.752C130.539 36.656 130.955 36.608 131.307 36.608C131.531 36.608 131.691 36.64 131.787 36.704C131.883 36.768 131.963 36.88 132.027 37.04C131.579 37.296 131.099 37.488 130.587 37.616C130.075 37.744 129.595 37.808 129.147 37.808H128.475C128.347 37.808 128.235 37.808 128.139 37.808C128.491 37.872 128.939 37.904 129.483 37.904C130.315 37.904 131.163 37.712 132.027 37.328C132.027 37.616 132.123 37.856 132.315 38.048C132.411 38.016 132.635 37.904 132.987 37.712C133.339 37.52 133.643 37.424 133.899 37.424C134.667 37.424 135.051 37.744 135.051 38.384C135.051 38.48 135.019 38.624 134.955 38.816C134.891 39.008 134.731 39.376 134.475 39.92ZM121.755 33.488C121.755 33.264 121.755 32.976 121.755 32.624C121.787 32.272 121.819 31.92 121.851 31.568L121.947 30.464C121.979 30.08 122.011 29.744 122.043 29.456C122.011 29.936 121.979 30.544 121.947 31.28C121.947 31.984 121.947 32.512 121.947 32.864V34.784C121.947 35.04 121.947 35.312 121.947 35.6C121.979 35.888 122.011 36.16 122.043 36.416C121.915 35.904 121.835 35.408 121.803 34.928C121.771 34.416 121.755 33.936 121.755 33.488ZM126.459 33.296C126.459 32.56 126.507 31.84 126.603 31.136C126.699 30.432 126.779 29.712 126.843 28.976C126.683 29.712 126.555 30.432 126.459 31.136C126.395 31.84 126.331 32.56 126.267 33.296V33.968C126.267 34.192 126.283 34.432 126.315 34.688V34.352C126.315 34.192 126.331 34.016 126.363 33.824C126.395 33.632 126.427 33.456 126.459 33.296ZM122.043 29.408C122.043 29.344 122.043 29.296 122.043 29.264C122.075 29.232 122.091 29.2 122.091 29.168C122.091 29.296 122.075 29.376 122.043 29.408ZM152.988 44.864C151.772 45.28 150.844 45.504 150.204 45.536C149.564 45.6 149.004 45.648 148.524 45.68C146.732 45.68 145.116 45.344 143.676 44.672C142.236 44 141.004 43.088 139.98 41.936C138.956 40.784 138.156 39.44 137.58 37.904C137.036 36.336 136.764 34.672 136.764 32.912C136.764 31.888 136.86 30.832 137.052 29.744C137.244 28.624 137.532 27.536 137.916 26.48C138.3 25.392 138.796 24.384 139.404 23.456C139.98 22.528 140.668 21.696 141.468 20.96C140.636 21.632 139.932 22.432 139.356 23.36C138.748 24.288 138.236 25.296 137.82 26.384C137.404 27.44 137.1 28.544 136.908 29.696C136.716 30.816 136.62 31.904 136.62 32.96C136.62 34.304 136.828 35.744 137.244 37.28C137.692 38.784 138.396 40.192 139.356 41.504C140.316 42.784 141.548 43.856 143.052 44.72C144.588 45.584 146.444 46.016 148.62 46.016C149.644 46.016 150.716 45.872 151.836 45.584C150.62 46.384 149.26 46.784 147.756 46.784C146.54 46.784 145.388 46.592 144.3 46.208C143.244 45.856 142.252 45.344 141.324 44.672C140.428 44.032 139.612 43.264 138.876 42.368C138.14 41.472 137.516 40.512 137.004 39.488L137.436 39.104C136.892 38.016 136.492 36.928 136.236 35.84C136.012 34.752 135.9 33.648 135.9 32.528C135.9 30.896 136.124 29.328 136.572 27.824C137.052 26.32 137.676 24.896 138.444 23.552L139.596 21.968C139.788 21.616 140.06 21.264 140.412 20.912C140.796 20.56 141.212 20.224 141.66 19.904C142.108 19.552 142.572 19.248 143.052 18.992C143.564 18.704 144.044 18.448 144.492 18.224C145.644 17.648 146.796 17.136 147.948 16.688C149.1 16.208 150.444 15.856 151.98 15.632L151.788 15.488C148.844 15.776 146.348 16.496 144.3 17.648C142.252 18.768 140.588 20.144 139.308 21.776C138.028 23.408 137.1 25.2 136.524 27.152C135.948 29.072 135.66 30.96 135.66 32.816C135.66 33.808 135.74 34.816 135.9 35.84C136.092 36.832 136.364 37.824 136.716 38.816C135.916 36.896 135.516 34.864 135.516 32.72C135.516 30.608 135.868 28.512 136.572 26.432C137.276 24.352 138.38 22.432 139.884 20.672C141.804 18.912 143.9 17.568 146.172 16.64C148.444 15.68 150.636 15.2 152.748 15.2C153.42 15.2 154.108 15.312 154.812 15.536C155.516 15.76 156.156 16.112 156.732 16.592C157.308 17.04 157.772 17.632 158.124 18.368C158.508 19.104 158.7 20 158.7 21.056C158.7 21.92 158.492 22.976 158.076 24.224C157.66 25.472 157.036 26.688 156.204 27.872C155.404 29.024 154.396 30.016 153.18 30.848C151.964 31.648 150.556 32.048 148.956 32.048H147.372C146.188 31.792 145.1 31.504 144.108 31.184C143.148 30.832 142.236 30.56 141.372 30.368C141.244 30.88 141.164 31.376 141.132 31.856C141.132 32.304 141.132 32.752 141.132 33.2C141.132 34.128 141.228 35.04 141.42 35.936C141.644 36.8 141.98 37.6 142.428 38.336C142.876 39.072 143.436 39.696 144.108 40.208C144.812 40.688 145.66 40.992 146.652 41.12C147.26 41.248 147.788 41.328 148.236 41.36C148.684 41.36 149.052 41.376 149.34 41.408C149.66 41.408 149.884 41.456 150.012 41.552C150.172 41.616 150.252 41.76 150.252 41.984C149.932 42.08 149.596 42.144 149.244 42.176C148.924 42.208 148.588 42.224 148.236 42.224C147.116 42.224 146.108 42.048 145.212 41.696C144.316 41.312 143.548 40.88 142.908 40.4C143.644 41.136 144.524 41.664 145.548 41.984C146.572 42.272 147.58 42.416 148.572 42.416C149.116 42.416 149.676 42.368 150.252 42.272C150.188 42.464 150.156 42.576 150.156 42.608C150.156 42.8 150.236 42.928 150.396 42.992C150.524 42.96 150.748 42.88 151.068 42.752C151.388 42.592 151.708 42.448 152.028 42.32C152.38 42.16 152.716 42.032 153.036 41.936C153.356 41.808 153.58 41.744 153.708 41.744C153.868 41.744 154.012 41.776 154.14 41.84C154.268 41.872 154.332 42.048 154.332 42.368C154.332 42.688 154.22 43.072 153.996 43.52C153.772 43.968 153.436 44.416 152.988 44.864ZM146.364 25.856L147.42 26.048C147.772 26.112 148.092 26.144 148.38 26.144C148.7 26.144 149.068 26.048 149.484 25.856C149.932 25.632 150.364 25.328 150.78 24.944C151.228 24.56 151.612 24.08 151.932 23.504C152.284 22.928 152.54 22.272 152.7 21.536L152.796 21.248C152.348 21.248 151.676 21.36 150.78 21.584C149.884 21.808 148.956 22.112 147.996 22.496C147.036 22.848 146.14 23.28 145.308 23.792C144.476 24.272 143.9 24.8 143.58 25.376C144.06 25.472 144.524 25.568 144.972 25.664C145.452 25.728 145.916 25.792 146.364 25.856ZM144.156 29.408C144.22 29.344 144.252 29.248 144.252 29.12C144.284 28.992 144.3 28.896 144.3 28.832L142.044 28.016L141.804 28.688L144.156 29.408ZM142.812 40.304C142.588 40.048 142.364 39.792 142.14 39.536C141.948 39.312 141.788 39.088 141.66 38.864C141.948 39.408 142.332 39.888 142.812 40.304Z" fill="url(#paint0_linear_187_31)"/>
</g>
<defs>
<filter id="filter0_ddi_187_31" x="0.880005" y="0.592041" width="165.82" height="71.632" filterUnits="userSpaceOnUse" color-interpolation-filters="sRGB">
<feFlood flood-opacity="0" result="BackgroundImageFix"/>
<feColorMatrix in="SourceAlpha" type="matrix" values="0 0 0 0 0 0 0 0 0 0 0 0 0 0 0 0 0 0 127 0" result="hardAlpha"/>
<feOffset dy="4"/>
<feGaussianBlur stdDeviation="4"/>
<feComposite in2="hardAlpha" operator="out"/>
<feColorMatrix type="matrix" values="0 0 0 0 0 0 0 0 0 0 0 0 0 0 0 0 0 0 0.25 0"/>
<feBlend mode="normal" in2="BackgroundImageFix" result="effect1_dropShadow_187_31"/>
<feColorMatrix in="SourceAlpha" type="matrix" values="0 0 0 0 0 0 0 0 0 0 0 0 0 0 0 0 0 0 127 0" result="hardAlpha"/>
<feOffset dy="4"/>
<feGaussianBlur stdDeviation="2"/>
<feComposite in2="hardAlpha" operator="out"/>
<feColorMatrix type="matrix" values="0 0 0 0 0 0 0 0 0 0 0 0 0 0 0 0 0 0 0.25 0"/>
<feBlend mode="normal" in2="effect1_dropShadow_187_31" result="effect2_dropShadow_187_31"/>
<feBlend mode="normal" in="SourceGraphic" in2="effect2_dropShadow_187_31" result="shape"/>
<feColorMatrix in="SourceAlpha" type="matrix" values="0 0 0 0 0 0 0 0 0 0 0 0 0 0 0 0 0 0 127 0" result="hardAlpha"/>
<feOffset dy="4"/>
<feGaussianBlur stdDeviation="2"/>
<feComposite in2="hardAlpha" operator="arithmetic" k2="-1" k3="1"/>
<feColorMatrix type="matrix" values="0 0 0 0 0 0 0 0 0 0 0 0 0 0 0 0 0 0 0.25 0"/>
<feBlend mode="normal" in2="shape" result="effect3_innerShadow_187_31"/>
</filter>
<linearGradient id="paint0_linear_187_31" x1="161" y1="29.3095" x2="-24.8665" y2="22.4942" gradientUnits="userSpaceOnUse">
<stop offset="0.00735177" stop-color="#9849FF"/>
<stop offset="0.537385" stop-color="#58249C"/>
<stop offset="1" stop-color="#321459"/>
</linearGradient>
</defs>
</svg>
